<?xml version="1.0"?>
<svg version="1.1" xmlns="http://www.w3.org/2000/svg" width="87" height="51" style=""><path fill="#ff8700" d="M16.51904296875,19.423828125q0-1.17041015625,0.062255859375-2.31591796875t0.211669921875-2.26611328125q0.099609375-0.57275390625,0.884033203125-0.82177734375t1.307373046875-0.2490234375l0.59765625,0.0498046875q0.72216796875,0.099609375,1.456787109375-0.099609375t1.456787109375-0.19921875q1.693359375,0,3.78515625,0.37353515625t3.922119140625,1.27001953125t3.075439453125,2.353271484375t1.2451171875,3.598388671875t-1.294921875,3.996826171875t-3.26220703125,3.26220703125t-4.2333984375,2.203857421875t-4.15869140625,0.796875q0.19921875,4.80615234375,0.560302734375,9.53759765625t1.232666015625,9.462890625l0.0498046875,0.32373046875q0,0.3486328125-0.311279296875,0.57275390625t-0.734619140625,0.361083984375t-0.859130859375,0.186767578125t-0.709716796875,0.0498046875q-0.62255859375,0-1.506591796875-0.236572265625t-1.083251953125-0.933837890625q-0.57275390625-2.19140625-0.896484375-4.818603515625t-0.47314453125-5.490966796875t-0.211669921875-5.764892578125t-0.062255859375-5.665283203125l0-5.60302734375q0-0.92138671875-0.02490234375-1.91748046875t-0.02490234375-2.01708984375z M21.2255859375,15.3896484375q0,3.41162109375,0.07470703125,6.810791015625t0.17431640625,6.810791015625q1.46923828125-0.298828125,3.000732421875-1.058349609375t2.76416015625-1.805419921875t1.9921875-2.378173828125t0.759521484375-2.801513671875q0-1.31982421875-0.659912109375-2.36572265625t-1.705810546875-1.79296875q-1.02099609375-0.72216796875-2.31591796875-1.12060546875q-1.1455078125-0.3486328125-2.2412109375-0.3486328125l-0.27392578125,0z M38.101157226562,15.56396484375q0-0.3486328125,0.485595703125-0.535400390625t0.635009765625-0.186767578125l0.92138671875-0.1494140625q0.92138671875-0.1494140625,1.86767578125-0.261474609375t1.8427734375-0.211669921875q3.16259765625-0.3984375,6.3251953125-0.784423828125t6.375-0.385986328125q0.2490234375,0,0.684814453125,0.02490234375t0.87158203125,0.136962890625t0.7470703125,0.311279296875t0.311279296875,0.5478515625q0,0.2490234375-0.236572265625,0.435791015625t-0.560302734375,0.286376953125t-0.659912109375,0.12451171875t-0.535400390625,0.02490234375l-0.435791015625,0t-0.435791015625-0.099609375q-1.31982421875,0-2.602294921875,0.12451171875t-2.602294921875,0.22412109375q0.3486328125,0.3984375,0.37353515625,1.12060546875t0.0498046875,1.2451171875q0,8.8154296875,0.12451171875,17.53125t0.22412109375,17.60595703125l0,0.0498046875q-0.82177734375,0.72216796875-1.406982421875,0.92138671875t-1.182861328125,0.19921875q-0.57275390625,0-1.157958984375-0.211669921875t-1.406982421875-0.908935546875l0-0.0498046875l0.19921875-19.54833984375q0-1.9423828125-0.0498046875-4.283203125t-0.0498046875-4.743896484375t0.07470703125-4.644287109375t0.3984375-3.90966796875q-1.46923828125,0.1494140625-3.11279296875,0.4482421875q-1.41943359375,0.2490234375-2.71435546875,0.2490234375l-0.4482421875,0q-0.099609375,0-0.585205078125,0.02490234375t-0.99609375-0.02490234375t-0.92138671875-0.19921875t-0.410888671875-0.498046875z M62.721357421875,33.39404296875q0-1.46923828125,0.161865234375-3.56103515625t0.59765625-4.35791015625t1.17041015625-4.50732421875t1.880126953125-3.95947265625t2.7392578125-2.71435546875q1.31982421875-0.82177734375,3.0380859375-0.82177734375q0.3486328125,0,0.72216796875,0.0498046875q4.3330078125,0.3984375,6.661376953125,1.979736328125t3.399169921875,4.00927734375t1.2451171875,5.5283203125t0.17431640625,6.536865234375q0,2.76416015625-0.510498046875,6.013916015625t-1.805419921875,6.063720703125t-3.573486328125,4.694091796875t-5.789794921875,1.880126953125q-2.1416015625,0-3.747802734375-0.784423828125t-2.726806640625-2.091796875t-1.8427734375-3.0380859375t-1.095703125-3.5859375t-0.535400390625-3.747802734375t-0.161865234375-3.5859375z M67.776533203125,32.2734375q0,1.07080078125,0.02490234375,2.627197265625t0.211669921875,3.274658203125t0.485595703125,3.424072265625t0.884033203125,3.100341796875t1.481689453125,2.291015625t2.16650390625,0.9462890625l0.12451171875,0q1.1455078125,0,2.0419921875-0.87158203125q0.9462890625-0.92138671875,1.680908203125-2.21630859375t1.27001953125-2.726806640625t0.958740234375-2.452880859375l-0.099609375,0.22412109375q0.72216796875-2.291015625,0.97119140625-4.694091796875t0.2490234375-4.743896484375q0-1.12060546875-0.1494140625-2.701904296875t-0.485595703125-3.299560546875t-0.87158203125-3.399169921875t-1.357177734375-2.926025390625t-1.91748046875-1.892578125q-0.796875-0.47314453125-1.76806640625-0.498046875q-0.37353515625,0-0.7470703125,0.07470703125q-1.27001953125,0.2490234375-2.16650390625,1.2451171875t-1.456787109375,2.452880859375t-0.859130859375,3.1875t-0.460693359375,3.486328125t-0.186767578125,3.36181640625t-0.02490234375,2.726806640625z M79.007490234375,39.943359375l0-0.0498046875l0,0.0498046875z"/><path fill="#" d=""/></svg>
