<?xml version="1.0" encoding="utf-8"?>
<svg id="master-artboard" viewBox="0 0 192 192" xmlns="http://www.w3.org/2000/svg" width="192px" height="192px" xmlns:xlink="http://www.w3.org/1999/xlink"><rect id="ee-background" x="0" y="0" width="192" height="192" style="fill: white; fill-opacity: 0; pointer-events: none;"/><defs><radialGradient id="radial-gradient-6" cx="148.71" cy="707.87" r="59.6" xlink:href="#radial-gradient-2"/><radialGradient id="radial-gradient-2" cx="148.71" cy="175.62" r="59.6" gradientUnits="userSpaceOnUse"><stop offset="0" stop-color="#e5e2df"/><stop offset="0" stop-color="#d6d4d1"/><stop offset="0" stop-color="#afadac"/><stop offset="0" stop-color="#717170"/><stop offset="0" stop-color="#666"/><stop offset="0.26" stop-color="#575757"/><stop offset="0.4" stop-color="#4d4d4d"/><stop offset="0.48" stop-color="#414141"/><stop offset="0.66" stop-color="#2b2b2b"/><stop offset="0.84" stop-color="#1e1e1e"/><stop offset="1" stop-color="#1a1a1a"/></radialGradient><radialGradient id="gradient-2" gradientUnits="objectBoundingBox" cx="0.5" cy="0.5" r="0.5">
                <stop offset="0" style="stop-color: #000000"/>
                <stop offset="1" style="stop-color: #000000"/>
              </radialGradient><linearGradient id="linear-gradient-7" x1="109.51" y1="748.46" x2="182.75" y2="672.62" xlink:href="#linear-gradient"/><linearGradient id="linear-gradient" x1="109.51" y1="216.21" x2="182.75" y2="140.37" gradientUnits="userSpaceOnUse"><stop offset="0" stop-color="#e5e2df"/><stop offset="0" stop-color="#d6d4d1"/><stop offset="0" stop-color="#afadac"/><stop offset="0" stop-color="#717170"/><stop offset="0" stop-color="#666"/><stop offset="0.26" stop-color="#575757"/><stop offset="0.4" stop-color="#4d4d4d"/><stop offset="0.52" stop-color="#444"/><stop offset="0.77" stop-color="#373737"/><stop offset="1" stop-color="#333"/></linearGradient><linearGradient id="linear-gradient-8" x1="373.17" y1="-907.55" x2="423.11" y2="-727.39" gradientTransform="translate(-692.16 316.21) rotate(90)" xlink:href="#linear-gradient-2"/><linearGradient id="linear-gradient-2" x1="-43.32" y1="-1238.95" x2="6.61" y2="-1058.78" gradientTransform="translate(-1023.56 200.46) rotate(90)" gradientUnits="userSpaceOnUse"><stop offset="0" stop-color="#e5e2df"/><stop offset="0" stop-color="#d6d4d1"/><stop offset="0" stop-color="#afafae"/><stop offset="0" stop-color="#999"/><stop offset="0.03" stop-color="#8d8d8d"/><stop offset="0.13" stop-color="#717171"/><stop offset="0.22" stop-color="#5d5d5d"/><stop offset="0.31" stop-color="#515151"/><stop offset="0.4" stop-color="#4d4d4d"/><stop offset="0.48" stop-color="#414141"/><stop offset="0.66" stop-color="#2b2b2b"/><stop offset="0.84" stop-color="#1e1e1e"/><stop offset="1" stop-color="#1a1a1a"/></linearGradient><linearGradient id="linear-gradient-9" x1="427.85" y1="-894.23" x2="369.44" y2="-808.12" gradientTransform="translate(-692.16 316.21) rotate(90)" xlink:href="#linear-gradient-3"/><linearGradient id="linear-gradient-3" x1="11.35" y1="-1225.63" x2="-47.06" y2="-1139.52" gradientTransform="translate(-1023.56 200.46) rotate(90)" gradientUnits="userSpaceOnUse"><stop offset="0" stop-color="#e5e2df"/><stop offset="0" stop-color="#d6d4d1"/><stop offset="0" stop-color="#afadac"/><stop offset="0" stop-color="#717170"/><stop offset="0" stop-color="#666"/><stop offset="0.26" stop-color="#575757"/><stop offset="0.4" stop-color="#4d4d4d"/><stop offset="0.51" stop-color="#444"/><stop offset="0.73" stop-color="#373737"/><stop offset="0.93" stop-color="#333"/></linearGradient><radialGradient id="gradient-0" gradientUnits="objectBoundingBox" cx="0.5" cy="0.5" r="0.5">
                <stop offset="0" style="stop-color: #ffad1f"/>
                <stop offset="1" style="stop-color: #b87500"/>
              </radialGradient><linearGradient id="gradient-1" gradientUnits="userSpaceOnUse" x1="148.7073745727539" y1="639.1500244140625" x2="148.7073745727539" y2="756.4600219726562" gradientTransform="matrix(0.3513783712395009, 0.9362337990369791, -1.106639707899552, 0.4153330997805186, 868.1984781471602, 301.83139050060186)">
                <stop offset="0" style="stop-color: #ff9900"/>
                <stop offset="1" style="stop-color: #995c00"/>
              </linearGradient></defs><g transform="matrix(1.296543836593628, 0, 0, 1.296543836593628, -71.42245950499537, -105.5513560755333)"><path d="M 208.310005 707.869995 A 59.599998 59.599998 0 0 1 148.710007 767.469994 A 59.599998 59.599998 0 0 1 89.110008 707.869995 A 59.599998 59.599998 0 0 1 148.710007 648.269997 A 59.599998 59.599998 0 0 1 208.310005 707.869995 Z" class="cls-15" style="fill: url('#radial-gradient-6');" transform="matrix(0.7213644981384277, -0.6925557851791382, 0.6925557851791382, 0.7213644981384277, -468.4033203125, -253.3203125)"/><path class="cls-16" d="M148.71,639.15a68.72,68.72,0,1,0,68.72,68.72A68.72,68.72,0,0,0,148.71,639.15Zm0,130.82a62.1,62.1,0,1,1,62.1-62.1A62.1,62.1,0,0,1,148.71,770Z" style="fill: url('#gradient-2'); stroke-opacity: 1; fill-opacity: 0.79;" transform="matrix(0.7213644981384277, -0.6925557851791382, 0.6925557851791382, 0.7213644981384277, -468.4033203125, -253.3203125)"/><path d="M 201.720005 707.869995 A 53.009998 53.009998 0 0 1 148.710007 760.879993 A 53.009998 53.009998 0 0 1 95.700008 707.869995 A 53.009998 53.009998 0 0 1 148.710007 654.859997 A 53.009998 53.009998 0 0 1 201.720005 707.869995 Z" class="cls-17" style="fill: url('#linear-gradient-7');" transform="matrix(0.7213644981384277, -0.6925557851791382, 0.6925557851791382, 0.7213644981384277, -468.4033203125, -253.3203125)"/><path d="M 197.260006 707.869995 A 48.549999 48.549999 0 0 1 148.710007 756.419994 A 48.549999 48.549999 0 0 1 100.160007 707.869995 A 48.549999 48.549999 0 0 1 148.710007 659.319996 A 48.549999 48.549999 0 0 1 197.260006 707.869995 Z" class="cls-18" transform="matrix(0.13324682414531708, -0.9910828471183777, 0.9910828471183777, 0.13324682414531708, -592.2590942382812, 207.3717803955078)" style="fill: url('#linear-gradient-8');"/><path d="M 196.160007 707.869995 A 47.450001 47.450001 0 0 1 148.710007 755.319996 A 47.450001 47.450001 0 0 1 101.260006 707.869995 A 47.450001 47.450001 0 0 1 148.710007 660.419994 A 47.450001 47.450001 0 0 1 196.160007 707.869995 Z" class="cls-19" transform="matrix(0.13324682414531708, -0.9910828471183777, 0.9910828471183777, 0.13324682414531708, -592.2590942382812, 207.3717803955078)" style="fill: url('#linear-gradient-9');"/><path d="M 179.210002 706.48999 H 187.670002 A 1.38 1.38 0 0 1 189.050002 707.86999 V 707.86999 A 1.38 1.38 0 0 1 187.670002 709.24999 H 179.210002 A 1.38 1.38 0 0 1 177.830002 707.86999 V 707.86999 A 1.38 1.38 0 0 1 179.210002 706.48999 Z" class="cls-7" style="fill: url('#gradient-0');" transform="matrix(2.894899368286133, -2.7792863845825195, 2.7792863845825195, 2.894899368286133, -2352.618408203125, -1399.5504150390625)"/><path class="cls-20" d="M148.71,639.15a68.72,68.72,0,0,0-48.59,117.31l4.68-4.68a62.1,62.1,0,1,1,106-43.91h6.62A68.72,68.72,0,0,0,148.71,639.15Z" style="fill: url('#gradient-1'); fill-opacity: 1;" transform="matrix(0.7213644981384277, -0.6925557851791382, 0.6925557851791382, 0.7213644981384277, -468.4033203125, -253.3203125)"/></g></svg>