<?xml version="1.0" encoding="utf-8"?>
<svg id="master-artboard" viewBox="0 0 512 512" xmlns="http://www.w3.org/2000/svg" width="512px" height="512px" xmlns:xlink="http://www.w3.org/1999/xlink"><defs><style id="ee-google-fonts">@import url(https://fonts.googleapis.com/css?family=Ek+Mukta:200,300,400,500,600,700,800);</style><radialGradient id="radial-gradient-6" cx="148.71" cy="707.87" r="59.6" xlink:href="#radial-gradient-2"/><radialGradient id="radial-gradient-2" cx="148.71" cy="175.62" r="59.6" gradientUnits="userSpaceOnUse"><stop offset="0" stop-color="#e5e2df"/><stop offset="0" stop-color="#d6d4d1"/><stop offset="0" stop-color="#afadac"/><stop offset="0" stop-color="#717170"/><stop offset="0" stop-color="#666"/><stop offset="0.26" stop-color="#575757"/><stop offset="0.4" stop-color="#4d4d4d"/><stop offset="0.48" stop-color="#414141"/><stop offset="0.66" stop-color="#2b2b2b"/><stop offset="0.84" stop-color="#1e1e1e"/><stop offset="1" stop-color="#1a1a1a"/></radialGradient><radialGradient id="gradient-2" gradientUnits="objectBoundingBox" cx="0.5" cy="0.5" r="0.5">
                <stop offset="0" style="stop-color: #000000"/>
                <stop offset="1" style="stop-color: #000000"/>
              </radialGradient><linearGradient id="linear-gradient-7" x1="109.51" y1="748.46" x2="182.75" y2="672.62" xlink:href="#linear-gradient"/><linearGradient id="linear-gradient" x1="109.51" y1="216.21" x2="182.75" y2="140.37" gradientUnits="userSpaceOnUse"><stop offset="0" stop-color="#e5e2df"/><stop offset="0" stop-color="#d6d4d1"/><stop offset="0" stop-color="#afadac"/><stop offset="0" stop-color="#717170"/><stop offset="0" stop-color="#666"/><stop offset="0.26" stop-color="#575757"/><stop offset="0.4" stop-color="#4d4d4d"/><stop offset="0.52" stop-color="#444"/><stop offset="0.77" stop-color="#373737"/><stop offset="1" stop-color="#333"/></linearGradient><linearGradient id="linear-gradient-8" x1="373.17" y1="-907.55" x2="423.11" y2="-727.39" gradientTransform="translate(-692.16 316.21) rotate(90)" xlink:href="#linear-gradient-2"/><linearGradient id="linear-gradient-2" x1="-43.32" y1="-1238.95" x2="6.61" y2="-1058.78" gradientTransform="translate(-1023.56 200.46) rotate(90)" gradientUnits="userSpaceOnUse"><stop offset="0" stop-color="#e5e2df"/><stop offset="0" stop-color="#d6d4d1"/><stop offset="0" stop-color="#afafae"/><stop offset="0" stop-color="#999"/><stop offset="0.03" stop-color="#8d8d8d"/><stop offset="0.13" stop-color="#717171"/><stop offset="0.22" stop-color="#5d5d5d"/><stop offset="0.31" stop-color="#515151"/><stop offset="0.4" stop-color="#4d4d4d"/><stop offset="0.48" stop-color="#414141"/><stop offset="0.66" stop-color="#2b2b2b"/><stop offset="0.84" stop-color="#1e1e1e"/><stop offset="1" stop-color="#1a1a1a"/></linearGradient><linearGradient id="linear-gradient-9" x1="427.85" y1="-894.23" x2="369.44" y2="-808.12" gradientTransform="translate(-692.16 316.21) rotate(90)" xlink:href="#linear-gradient-3"/><linearGradient id="linear-gradient-3" x1="11.35" y1="-1225.63" x2="-47.06" y2="-1139.52" gradientTransform="translate(-1023.56 200.46) rotate(90)" gradientUnits="userSpaceOnUse"><stop offset="0" stop-color="#e5e2df"/><stop offset="0" stop-color="#d6d4d1"/><stop offset="0" stop-color="#afadac"/><stop offset="0" stop-color="#717170"/><stop offset="0" stop-color="#666"/><stop offset="0.26" stop-color="#575757"/><stop offset="0.4" stop-color="#4d4d4d"/><stop offset="0.51" stop-color="#444"/><stop offset="0.73" stop-color="#373737"/><stop offset="0.93" stop-color="#333"/></linearGradient><radialGradient id="gradient-0" gradientUnits="objectBoundingBox" cx="0.5" cy="0.5" r="0.5">
                <stop offset="0" style="stop-color: #ffad1f"/>
                <stop offset="1" style="stop-color: #b87500"/>
              </radialGradient><linearGradient id="gradient-1" gradientUnits="userSpaceOnUse" x1="148.7073745727539" y1="639.1500244140625" x2="148.7073745727539" y2="756.4600219726562" gradientTransform="matrix(0.3513783712395009, 0.9362337990369791, -1.106639707899552, 0.4153330997805186, 868.1984781471602, 301.83139050060186)">
                <stop offset="0" style="stop-color: #ff9900"/>
                <stop offset="1" style="stop-color: #995c00"/>
              </linearGradient></defs><rect id="ee-background" x="0" y="0" width="512" height="512" style="fill: white; fill-opacity: 0; pointer-events: none;"/><path d="M 81.18896484375 321.42999267578125 L 88.90896606445312 321.42999267578125 C 90.18229675292969 321.42999267578125 91.33895874023438 321.59332275390625 92.37895965576172 321.9200134277344 C 93.41896057128906 322.2466735839844 94.31562805175781 322.7266540527344 95.06896209716797 323.3599853515625 C 95.82896423339844 324 96.4156265258789 324.7799987792969 96.82896423339844 325.70001220703125 C 97.24229431152344 326.6266784667969 97.44895935058594 327.6866760253906 97.44895935058594 328.8800048828125 C 97.44895935058594 330.17999267578125 97.22895812988281 331.3033447265625 96.7889633178711 332.25 C 96.34896087646484 333.2033386230469 95.72563171386719 333.989990234375 94.91896057128906 334.6099853515625 C 94.11229705810547 335.2366638183594 93.16229248046875 335.7066650390625 92.06896209716797 336.0199890136719 C 90.97563171386719 336.32666015625 89.765625 336.4800109863281 88.43896484375 336.4800109863281 L 84.77896118164062 336.4800109863281 L 84.77896118164062 346 L 81.18896484375 346 L 81.18896484375 321.42999267578125 M 84.77896118164062 333.55999755859375 L 86.99896240234375 333.55999755859375 C 87.9589614868164 333.55999755859375 88.85562896728516 333.49334716796875 89.68896484375 333.3599853515625 C 90.52229309082031 333.23333740234375 91.23229217529297 333 91.81896209716797 332.6600036621094 C 92.40563201904297 332.32000732421875 92.86563110351562 331.8466796875 93.19895935058594 331.239990234375 C 93.5389633178711 330.6266784667969 93.7089614868164 329.85333251953125 93.7089614868164 328.9200134277344 C 93.7089614868164 328.05999755859375 93.5456314086914 327.336669921875 93.21896362304688 326.75 C 92.89229583740234 326.1700134277344 92.46896362304688 325.6966552734375 91.94895935058594 325.3299865722656 C 91.42896270751953 324.96331787109375 90.8322982788086 324.7033386230469 90.15896606445312 324.54998779296875 C 89.48562622070312 324.39666748046875 88.7956314086914 324.32000732421875 88.08895874023438 324.32000732421875 L 84.77896118164062 324.32000732421875 L 84.77896118164062 333.55999755859375 ZM 104.91468811035156 346 L 104.91468811035156 327.6700134277344 L 107.49468994140625 327.6700134277344 L 108.07469177246094 331.3399963378906 C 108.52135467529297 330.1666564941406 109.25135803222656 329.2166748046875 110.26468658447266 328.489990234375 C 111.27802276611328 327.7633361816406 112.4480209350586 327.3999938964844 113.77468872070312 327.3999938964844 C 114.4480209350586 327.3999938964844 115.00468444824219 327.45001220703125 115.44468688964844 327.54998779296875 C 115.891357421875 327.65667724609375 116.29468536376953 327.78668212890625 116.6546859741211 327.94000244140625 L 115.99468994140625 330.95001220703125 C 115.68135833740234 330.7900085449219 115.33802032470703 330.6600036621094 114.96469116210938 330.55999755859375 C 114.58468627929688 330.4533386230469 114.13468933105469 330.3999938964844 113.61468505859375 330.3999938964844 C 112.86135864257812 330.3999938964844 112.16468811035156 330.5299987792969 111.52468872070312 330.7900085449219 C 110.891357421875 331.04998779296875 110.33468627929688 331.44000244140625 109.85469055175781 331.9599914550781 C 109.37468719482422 332.4800109863281 108.9980239868164 333.1233215332031 108.72468566894531 333.8900146484375 C 108.45135498046875 334.65667724609375 108.31468963623047 335.5333251953125 108.31468963623047 336.5199890136719 L 108.31468963623047 346 L 104.91468811035156 346 ZM 138.96615600585938 336.6400146484375 C 138.96615600585938 338.17333984375 138.7328338623047 339.5433349609375 138.2661590576172 340.75 C 137.79949951171875 341.96331787109375 137.15615844726562 342.9866638183594 136.33616638183594 343.82000732421875 C 135.5161590576172 344.64666748046875 134.5594940185547 345.27667236328125 133.46617126464844 345.7099914550781 C 132.37283325195312 346.13665771484375 131.1894989013672 346.3500061035156 129.91616821289062 346.3500061035156 C 128.64283752441406 346.3500061035156 127.4661636352539 346.1499938964844 126.38616180419922 345.75 C 125.30616760253906 345.34332275390625 124.37283325195312 344.74334716796875 123.58616638183594 343.95001220703125 C 122.79283142089844 343.15667724609375 122.16616821289062 342.1833190917969 121.70616149902344 341.0299987792969 C 121.2528305053711 339.8699951171875 121.02616119384766 338.53668212890625 121.02616119384766 337.0299987792969 C 121.02616119384766 335.4966735839844 121.2594985961914 334.1333312988281 121.72616577148438 332.94000244140625 C 122.19283294677734 331.739990234375 122.83616638183594 330.7300109863281 123.65616607666016 329.9100036621094 C 124.47616577148438 329.0899963378906 125.43283081054688 328.4666748046875 126.52616119384766 328.0400085449219 C 127.61949920654297 327.61334228515625 128.80282592773438 327.3999938964844 130.076171875 327.3999938964844 C 131.34950256347656 327.3999938964844 132.5261688232422 327.59332275390625 133.60617065429688 327.9800109863281 C 134.6861572265625 328.3733215332031 135.62283325195312 328.9599914550781 136.41616821289062 329.739990234375 C 137.20950317382812 330.5199890136719 137.83282470703125 331.4866638183594 138.28616333007812 332.6400146484375 C 138.739501953125 333.79998779296875 138.96615600585938 335.1333312988281 138.96615600585938 336.6400146484375 M 135.37615966796875 336.8399963378906 C 135.37615966796875 335.61334228515625 135.21949768066406 334.57000732421875 134.90615844726562 333.7099914550781 C 134.59950256347656 332.8566589355469 134.1928253173828 332.15667724609375 133.6861572265625 331.6099853515625 C 133.17950439453125 331.0633239746094 132.59950256347656 330.6666564941406 131.9461669921875 330.4200134277344 C 131.29949951171875 330.17333984375 130.63616943359375 330.04998779296875 129.95616149902344 330.04998779296875 C 129.2828369140625 330.04998779296875 128.61949157714844 330.1533203125 127.9661636352539 330.3599853515625 C 127.31949615478516 330.5666809082031 126.74949645996094 330.92999267578125 126.25616455078125 331.45001220703125 C 125.76283264160156 331.9700012207031 125.36616516113281 332.6666564941406 125.066162109375 333.5400085449219 C 124.76616668701172 334.413330078125 124.61616516113281 335.5133361816406 124.61616516113281 336.8399963378906 C 124.61616516113281 338.05999755859375 124.77283477783203 339.10333251953125 125.08616638183594 339.9700012207031 C 125.39282989501953 340.84332275390625 125.8028335571289 341.5533447265625 126.316162109375 342.1000061035156 C 126.82283020019531 342.64666748046875 127.39949798583984 343.04998779296875 128.04615783691406 343.30999755859375 C 128.69949340820312 343.57000732421875 129.36282348632812 343.70001220703125 130.03616333007812 343.70001220703125 C 130.70950317382812 343.70001220703125 131.37283325195312 343.5899963378906 132.0261688232422 343.3699951171875 C 132.67283630371094 343.1499938964844 133.24282836914062 342.7733459472656 133.7361602783203 342.239990234375 C 134.2361602783203 341.7066650390625 134.63282775878906 341.0033264160156 134.92616271972656 340.1300048828125 C 135.22616577148438 339.25665283203125 135.37615966796875 338.1600036621094 135.37615966796875 336.8399963378906 ZM 158.07415771484375 318.30999755859375 L 161.504150390625 318.30999755859375 L 161.504150390625 346 L 158.6241455078125 346 L 158.19415283203125 343.9700012207031 L 158.07415771484375 343.9700012207031 C 157.26748657226562 344.8033447265625 156.4541473388672 345.4100036621094 155.6341552734375 345.7900085449219 C 154.81414794921875 346.163330078125 153.78082275390625 346.3500061035156 152.53414916992188 346.3500061035156 C 151.5474853515625 346.3500061035156 150.59414672851562 346.15667724609375 149.6741485595703 345.7699890136719 C 148.7474822998047 345.3766784667969 147.9208221435547 344.7900085449219 147.19415283203125 344.010009765625 C 146.4674835205078 343.2300109863281 145.8808135986328 342.25 145.43414306640625 341.07000732421875 C 144.99415588378906 339.8833312988281 144.77415466308594 338.48333740234375 144.77415466308594 336.8699951171875 C 144.77415466308594 335.4433288574219 144.9641571044922 334.1433410644531 145.34414672851562 332.9700012207031 C 145.7174835205078 331.8033447265625 146.25747680664062 330.8033447265625 146.9641571044922 329.9700012207031 C 147.66415405273438 329.13665771484375 148.52081298828125 328.5 149.53414916992188 328.05999755859375 C 150.5474853515625 327.6199951171875 151.7041473388672 327.3999938964844 153.004150390625 327.3999938964844 C 153.9641571044922 327.3999938964844 154.8808135986328 327.54998779296875 155.754150390625 327.8500061035156 C 156.6274871826172 328.1433410644531 157.40081787109375 328.5899963378906 158.07415771484375 329.19000244140625 L 158.07415771484375 318.30999755859375 M 158.07415771484375 332.0799865722656 C 156.85415649414062 330.70001220703125 155.4108123779297 330.010009765625 153.74415588378906 330.010009765625 C 153.0441436767578 330.010009765625 152.36080932617188 330.1333312988281 151.69415283203125 330.3800048828125 C 151.03414916992188 330.6266784667969 150.45082092285156 331.0233459472656 149.94415283203125 331.57000732421875 C 149.43748474121094 332.1166687011719 149.02748107910156 332.82000732421875 148.7141571044922 333.67999267578125 C 148.40081787109375 334.5333251953125 148.24415588378906 335.55999755859375 148.24415588378906 336.760009765625 C 148.24415588378906 338.00665283203125 148.38748168945312 339.0666809082031 148.6741485595703 339.94000244140625 C 148.9608154296875 340.8066711425781 149.34414672851562 341.5199890136719 149.82415771484375 342.0799865722656 C 150.3041534423828 342.6400146484375 150.85081481933594 343.04998779296875 151.4641571044922 343.30999755859375 C 152.07748413085938 343.57000732421875 152.69415283203125 343.70001220703125 153.31414794921875 343.70001220703125 C 155.26748657226562 343.70001220703125 156.85415649414062 342.85333251953125 158.07415771484375 341.1600036621094 L 158.07415771484375 332.0799865722656 ZM 182.5916748046875 327.6700134277344 L 186.02166748046875 327.6700134277344 L 186.02166748046875 346 L 183.3316650390625 346 L 182.86167907714844 343.70001220703125 L 182.70167541503906 343.70001220703125 C 182.02833557128906 344.4533386230469 181.19166564941406 345.0833435058594 180.19166564941406 345.5899963378906 C 179.19166564941406 346.0966796875 178.02833557128906 346.3500061035156 176.70167541503906 346.3500061035156 C 174.80166625976562 346.3500061035156 173.2616729736328 345.80999755859375 172.0816650390625 344.7300109863281 C 170.89500427246094 343.6499938964844 170.30166625976562 342.0199890136719 170.30166625976562 339.8399963378906 L 170.30166625976562 327.6700134277344 L 173.73167419433594 327.6700134277344 L 173.73167419433594 339.4100036621094 C 173.73167419433594 340.19000244140625 173.8316650390625 340.85333251953125 174.03167724609375 341.3999938964844 C 174.22500610351562 341.9466552734375 174.48500061035156 342.3800048828125 174.81167602539062 342.70001220703125 C 175.1316680908203 343.02667236328125 175.51499938964844 343.2633361816406 175.961669921875 343.4100036621094 C 176.40167236328125 343.54998779296875 176.8816680908203 343.6199951171875 177.40167236328125 343.6199951171875 C 178.44166564941406 343.6199951171875 179.3783416748047 343.3999938964844 180.211669921875 342.9599914550781 C 181.04501342773438 342.5133361816406 181.8383331298828 341.8999938964844 182.5916748046875 341.1199951171875 L 182.5916748046875 327.6700134277344 ZM 203.3179931640625 343.70001220703125 C 204.1513214111328 343.70001220703125 204.87799072265625 343.6099853515625 205.49798583984375 343.42999267578125 C 206.12464904785156 343.24334716796875 206.7379913330078 343.00665283203125 207.33798217773438 342.7200012207031 L 208.07798767089844 345.29998779296875 C 206.67132568359375 346 204.99465942382812 346.3500061035156 203.04798889160156 346.3500061035156 C 201.7213134765625 346.3500061035156 200.4779815673828 346.15667724609375 199.3179931640625 345.7699890136719 C 198.16465759277344 345.3766784667969 197.1513214111328 344.7833251953125 196.27798461914062 343.989990234375 C 195.40464782714844 343.1966552734375 194.7213134765625 342.2099914550781 194.2279815673828 341.0299987792969 C 193.73464965820312 339.84332275390625 193.4879913330078 338.4566650390625 193.4879913330078 336.8699951171875 C 193.4879913330078 335.4166564941406 193.7213134765625 334.1066589355469 194.18798828125 332.94000244140625 C 194.65464782714844 331.76666259765625 195.30465698242188 330.7699890136719 196.1379852294922 329.95001220703125 C 196.9713134765625 329.1300048828125 197.9746551513672 328.5 199.14797973632812 328.05999755859375 C 200.3146514892578 327.6199951171875 201.601318359375 327.3999938964844 203.0079803466797 327.3999938964844 C 203.8146514892578 327.3999938964844 204.601318359375 327.4566650390625 205.36798095703125 327.57000732421875 C 206.13465881347656 327.69000244140625 207.01132202148438 327.9700012207031 207.99798583984375 328.4100036621094 L 207.21798706054688 331.0199890136719 C 206.024658203125 330.3466796875 204.7379913330078 330.010009765625 203.3579864501953 330.010009765625 C 201.45799255371094 330.010009765625 199.92465209960938 330.6000061035156 198.7579803466797 331.7799987792969 C 197.58465576171875 332.9666748046875 196.99798583984375 334.6266784667969 196.99798583984375 336.760009765625 C 196.99798583984375 338.086669921875 197.1813201904297 339.19000244140625 197.54798889160156 340.07000732421875 C 197.90798950195312 340.9566650390625 198.3879852294922 341.6666564941406 198.9879913330078 342.20001220703125 C 199.58798217773438 342.73333740234375 200.2646484375 343.1166687011719 201.0179901123047 343.3500061035156 C 201.7713165283203 343.5833435058594 202.53799438476562 343.70001220703125 203.3179931640625 343.70001220703125 ZM 224.76852416992188 330.239990234375 L 219.37852478027344 330.239990234375 L 219.37852478027344 340.8900146484375 C 219.37852478027344 341.8033447265625 219.60853576660156 342.413330078125 220.0685272216797 342.7200012207031 C 220.52186584472656 343.0333251953125 221.1118621826172 343.19000244140625 221.83853149414062 343.19000244140625 C 222.35853576660156 343.19000244140625 222.93186950683594 343.1333312988281 223.55853271484375 343.0199890136719 C 224.17852783203125 342.8999938964844 224.72186279296875 342.7633361816406 225.18853759765625 342.6099853515625 L 225.738525390625 345.2200012207031 C 225.21853637695312 345.4266662597656 224.55519104003906 345.6099853515625 223.74853515625 345.7699890136719 C 222.94186401367188 345.92333984375 222.09852600097656 346 221.21853637695312 346 C 219.39852905273438 346 218.07186889648438 345.60333251953125 217.238525390625 344.80999755859375 C 216.4051971435547 344.01666259765625 215.988525390625 342.8666687011719 215.988525390625 341.3599853515625 L 215.988525390625 330.239990234375 L 213.25852966308594 330.239990234375 L 213.25852966308594 327.6700134277344 L 215.988525390625 327.6700134277344 L 215.988525390625 321.82000732421875 L 219.37852478027344 321.82000732421875 L 219.37852478027344 327.6700134277344 L 224.76852416992188 327.6700134277344 L 224.76852416992188 330.239990234375 ZM 233.11402893066406 346 L 233.11402893066406 327.6700134277344 L 236.54403686523438 327.6700134277344 L 236.54403686523438 346 L 233.11402893066406 346 M 234.82403564453125 322.95001220703125 C 234.23069763183594 322.95001220703125 233.7173614501953 322.75 233.28402709960938 322.3500061035156 C 232.85736083984375 321.9433288574219 232.64402770996094 321.44000244140625 232.64402770996094 320.8399963378906 C 232.64402770996094 320.2466735839844 232.85736083984375 319.739990234375 233.28402709960938 319.32000732421875 C 233.7173614501953 318.90667724609375 234.23069763183594 318.70001220703125 234.82403564453125 318.70001220703125 C 235.39736938476562 318.70001220703125 235.90403747558594 318.90667724609375 236.34402465820312 319.32000732421875 C 236.7906951904297 319.739990234375 237.0140380859375 320.2466735839844 237.0140380859375 320.8399963378906 C 237.0140380859375 321.44000244140625 236.7906951904297 321.9433288574219 236.34402465820312 322.3500061035156 C 235.90403747558594 322.75 235.39736938476562 322.95001220703125 234.82403564453125 322.95001220703125 ZM 262.5775146484375 336.6400146484375 C 262.5775146484375 338.17333984375 262.34417724609375 339.5433349609375 261.87750244140625 340.75 C 261.41082763671875 341.96331787109375 260.76751708984375 342.9866638183594 259.947509765625 343.82000732421875 C 259.12750244140625 344.64666748046875 258.17083740234375 345.27667236328125 257.0775146484375 345.7099914550781 C 255.9841766357422 346.13665771484375 254.80084228515625 346.3500061035156 253.5275115966797 346.3500061035156 C 252.25418090820312 346.3500061035156 251.0775146484375 346.1499938964844 249.9975128173828 345.75 C 248.91751098632812 345.34332275390625 247.9841766357422 344.74334716796875 247.197509765625 343.95001220703125 C 246.4041748046875 343.15667724609375 245.7775115966797 342.1833190917969 245.3175048828125 341.0299987792969 C 244.8641815185547 339.8699951171875 244.63751220703125 338.53668212890625 244.63751220703125 337.0299987792969 C 244.63751220703125 335.4966735839844 244.87083435058594 334.1333312988281 245.33750915527344 332.94000244140625 C 245.80416870117188 331.739990234375 246.447509765625 330.7300109863281 247.2675018310547 329.9100036621094 C 248.08750915527344 329.0899963378906 249.04417419433594 328.4666748046875 250.13751220703125 328.0400085449219 C 251.2308349609375 327.61334228515625 252.41416931152344 327.3999938964844 253.6875 327.3999938964844 C 254.96084594726562 327.3999938964844 256.13751220703125 327.59332275390625 257.2174987792969 327.9800109863281 C 258.2975158691406 328.3733215332031 259.2341613769531 328.9599914550781 260.0274963378906 329.739990234375 C 260.8208312988281 330.5199890136719 261.4441833496094 331.4866638183594 261.89752197265625 332.6400146484375 C 262.350830078125 333.79998779296875 262.5775146484375 335.1333312988281 262.5775146484375 336.6400146484375 M 258.9875183105469 336.8399963378906 C 258.9875183105469 335.61334228515625 258.8308410644531 334.57000732421875 258.51751708984375 333.7099914550781 C 258.2108459472656 332.8566589355469 257.8041687011719 332.15667724609375 257.2975158691406 331.6099853515625 C 256.79083251953125 331.0633239746094 256.2108459472656 330.6666564941406 255.55751037597656 330.4200134277344 C 254.9108428955078 330.17333984375 254.2475128173828 330.04998779296875 253.5675048828125 330.04998779296875 C 252.89418029785156 330.04998779296875 252.2308349609375 330.1533203125 251.5775146484375 330.3599853515625 C 250.93084716796875 330.5666809082031 250.36083984375 330.92999267578125 249.8675079345703 331.45001220703125 C 249.37417602539062 331.9700012207031 248.97750854492188 332.6666564941406 248.67750549316406 333.5400085449219 C 248.37750244140625 334.413330078125 248.22750854492188 335.5133361816406 248.22750854492188 336.8399963378906 C 248.22750854492188 338.05999755859375 248.38417053222656 339.10333251953125 248.697509765625 339.9700012207031 C 249.00418090820312 340.84332275390625 249.41416931152344 341.5533447265625 249.92750549316406 342.1000061035156 C 250.43417358398438 342.64666748046875 251.01083374023438 343.04998779296875 251.65750122070312 343.30999755859375 C 252.3108367919922 343.57000732421875 252.97418212890625 343.70001220703125 253.6475067138672 343.70001220703125 C 254.3208465576172 343.70001220703125 254.9841766357422 343.5899963378906 255.63751220703125 343.3699951171875 C 256.2841796875 343.1499938964844 256.85418701171875 342.7733459472656 257.3475036621094 342.239990234375 C 257.8475036621094 341.7066650390625 258.2441711425781 341.0033264160156 258.5375061035156 340.1300048828125 C 258.8374938964844 339.25665283203125 258.9875183105469 338.1600036621094 258.9875183105469 336.8399963378906 ZM 273.4427795410156 346 L 270.0127868652344 346 L 270.0127868652344 327.6700134277344 L 272.7027893066406 327.6700134277344 L 273.2127990722656 330.2099914550781 C 274.11944580078125 329.2966613769531 275.07611083984375 328.6000061035156 276.0827941894531 328.1199951171875 C 277.0827941894531 327.6400146484375 278.2327880859375 327.3999938964844 279.5328063964844 327.3999938964844 C 281.4061279296875 327.3999938964844 282.872802734375 327.9266662597656 283.93280029296875 328.9800109863281 C 284.99945068359375 330.0333251953125 285.5328063964844 331.49334716796875 285.5328063964844 333.3599853515625 L 285.5328063964844 346 L 282.102783203125 346 L 282.102783203125 333.8699951171875 C 282.102783203125 332.75 281.8094482421875 331.8599853515625 281.2227783203125 331.20001220703125 C 280.6427917480469 330.5400085449219 279.7528076171875 330.2099914550781 278.55279541015625 330.2099914550781 C 276.7327880859375 330.2099914550781 275.0294494628906 331.02667236328125 273.4427795410156 332.6600036621094 L 273.4427795410156 346 ZM 322.3980407714844 321.42999267578125 L 322.3980407714844 324.4700012207031 L 314.7180480957031 324.4700012207031 L 314.7180480957031 346 L 311.1280517578125 346 L 311.1280517578125 324.4700012207031 L 303.5980529785156 324.4700012207031 L 303.5980529785156 321.42999267578125 L 322.3980407714844 321.42999267578125 ZM 343.7063293457031 336.6400146484375 C 343.7063293457031 338.17333984375 343.4729919433594 339.5433349609375 343.00634765625 340.75 C 342.5396728515625 341.96331787109375 341.8963317871094 342.9866638183594 341.0763244628906 343.82000732421875 C 340.25634765625 344.64666748046875 339.2996826171875 345.27667236328125 338.2063293457031 345.7099914550781 C 337.1130065917969 346.13665771484375 335.9296569824219 346.3500061035156 334.6563415527344 346.3500061035156 C 333.38299560546875 346.3500061035156 332.2063293457031 346.1499938964844 331.1263427734375 345.75 C 330.04632568359375 345.34332275390625 329.1130065917969 344.74334716796875 328.3263244628906 343.95001220703125 C 327.5329895019531 343.15667724609375 326.9063415527344 342.1833190917969 326.44635009765625 341.0299987792969 C 325.9930114746094 339.8699951171875 325.7663269042969 338.53668212890625 325.7663269042969 337.0299987792969 C 325.7663269042969 335.4966735839844 325.9996643066406 334.1333312988281 326.4663391113281 332.94000244140625 C 326.9330139160156 331.739990234375 327.5763244628906 330.7300109863281 328.3963317871094 329.9100036621094 C 329.2163391113281 329.0899963378906 330.1730041503906 328.4666748046875 331.2663269042969 328.0400085449219 C 332.35968017578125 327.61334228515625 333.5429992675781 327.3999938964844 334.81634521484375 327.3999938964844 C 336.08966064453125 327.3999938964844 337.2663269042969 327.59332275390625 338.3463439941406 327.9800109863281 C 339.42633056640625 328.3733215332031 340.3630065917969 328.9599914550781 341.1563415527344 329.739990234375 C 341.9496765136719 330.5199890136719 342.572998046875 331.4866638183594 343.0263366699219 332.6400146484375 C 343.47967529296875 333.79998779296875 343.7063293457031 335.1333312988281 343.7063293457031 336.6400146484375 M 340.1163330078125 336.8399963378906 C 340.1163330078125 335.61334228515625 339.95965576171875 334.57000732421875 339.6463317871094 333.7099914550781 C 339.33966064453125 332.8566589355469 338.9330139160156 332.15667724609375 338.42633056640625 331.6099853515625 C 337.919677734375 331.0633239746094 337.33966064453125 330.6666564941406 336.68634033203125 330.4200134277344 C 336.0396728515625 330.17333984375 335.3763427734375 330.04998779296875 334.69635009765625 330.04998779296875 C 334.02301025390625 330.04998779296875 333.35968017578125 330.1533203125 332.7063293457031 330.3599853515625 C 332.0596618652344 330.5666809082031 331.48968505859375 330.92999267578125 330.996337890625 331.45001220703125 C 330.50299072265625 331.9700012207031 330.1063232421875 332.6666564941406 329.80633544921875 333.5400085449219 C 329.50634765625 334.413330078125 329.3563232421875 335.5133361816406 329.3563232421875 336.8399963378906 C 329.3563232421875 338.05999755859375 329.51300048828125 339.10333251953125 329.8263244628906 339.9700012207031 C 330.13299560546875 340.84332275390625 330.5429992675781 341.5533447265625 331.05633544921875 342.1000061035156 C 331.5630187988281 342.64666748046875 332.1396789550781 343.04998779296875 332.7863464355469 343.30999755859375 C 333.4396667480469 343.57000732421875 334.1029968261719 343.70001220703125 334.7763366699219 343.70001220703125 C 335.4496765136719 343.70001220703125 336.1130065917969 343.5899963378906 336.7663269042969 343.3699951171875 C 337.4129943847656 343.1499938964844 337.9830017089844 342.7733459472656 338.4763488769531 342.239990234375 C 338.9763488769531 341.7066650390625 339.3730163574219 341.0033264160156 339.6663513183594 340.1300048828125 C 339.9663391113281 339.25665283203125 340.1163330078125 338.1600036621094 340.1163330078125 336.8399963378906 ZM 366.7337646484375 336.6400146484375 C 366.7337646484375 338.17333984375 366.50042724609375 339.5433349609375 366.0337829589844 340.75 C 365.5671081542969 341.96331787109375 364.92376708984375 342.9866638183594 364.103759765625 343.82000732421875 C 363.2837829589844 344.64666748046875 362.3271179199219 345.27667236328125 361.2337646484375 345.7099914550781 C 360.14044189453125 346.13665771484375 358.95709228515625 346.3500061035156 357.68377685546875 346.3500061035156 C 356.4104309082031 346.3500061035156 355.2337646484375 346.1499938964844 354.1537780761719 345.75 C 353.0737609863281 345.34332275390625 352.14044189453125 344.74334716796875 351.353759765625 343.95001220703125 C 350.5604248046875 343.15667724609375 349.93377685546875 342.1833190917969 349.4737854003906 341.0299987792969 C 349.02044677734375 339.8699951171875 348.79376220703125 338.53668212890625 348.79376220703125 337.0299987792969 C 348.79376220703125 335.4966735839844 349.027099609375 334.1333312988281 349.4937744140625 332.94000244140625 C 349.96044921875 331.739990234375 350.603759765625 330.7300109863281 351.42376708984375 329.9100036621094 C 352.2437744140625 329.0899963378906 353.200439453125 328.4666748046875 354.29376220703125 328.0400085449219 C 355.3871154785156 327.61334228515625 356.5704345703125 327.3999938964844 357.8437805175781 327.3999938964844 C 359.1170959472656 327.3999938964844 360.29376220703125 327.59332275390625 361.373779296875 327.9800109863281 C 362.4537658691406 328.3733215332031 363.39044189453125 328.9599914550781 364.18377685546875 329.739990234375 C 364.97711181640625 330.5199890136719 365.6004333496094 331.4866638183594 366.05377197265625 332.6400146484375 C 366.5071105957031 333.79998779296875 366.7337646484375 335.1333312988281 366.7337646484375 336.6400146484375 M 363.1437683105469 336.8399963378906 C 363.1437683105469 335.61334228515625 362.98712158203125 334.57000732421875 362.67376708984375 333.7099914550781 C 362.3670959472656 332.8566589355469 361.96044921875 332.15667724609375 361.4537658691406 331.6099853515625 C 360.9471130371094 331.0633239746094 360.3670959472656 330.6666564941406 359.7137756347656 330.4200134277344 C 359.0671081542969 330.17333984375 358.4037780761719 330.04998779296875 357.7237854003906 330.04998779296875 C 357.0504455566406 330.04998779296875 356.3871154785156 330.1533203125 355.7337646484375 330.3599853515625 C 355.08709716796875 330.5666809082031 354.5171203613281 330.92999267578125 354.0237731933594 331.45001220703125 C 353.5304260253906 331.9700012207031 353.1337585449219 332.6666564941406 352.8337707519531 333.5400085449219 C 352.5337829589844 334.413330078125 352.3837585449219 335.5133361816406 352.3837585449219 336.8399963378906 C 352.3837585449219 338.05999755859375 352.5404357910156 339.10333251953125 352.853759765625 339.9700012207031 C 353.1604309082031 340.84332275390625 353.5704345703125 341.5533447265625 354.0837707519531 342.1000061035156 C 354.5904541015625 342.64666748046875 355.1671142578125 343.04998779296875 355.81378173828125 343.30999755859375 C 356.46710205078125 343.57000732421875 357.13043212890625 343.70001220703125 357.80377197265625 343.70001220703125 C 358.47711181640625 343.70001220703125 359.14044189453125 343.5899963378906 359.79376220703125 343.3699951171875 C 360.4404296875 343.1499938964844 361.01043701171875 342.7733459472656 361.5037841796875 342.239990234375 C 362.0037841796875 341.7066650390625 362.40045166015625 341.0033264160156 362.69378662109375 340.1300048828125 C 362.9937744140625 339.25665283203125 363.1437683105469 338.1600036621094 363.1437683105469 336.8399963378906 ZM 374.3290710449219 346 L 374.3290710449219 318.30999755859375 L 377.6790771484375 318.30999755859375 L 377.6790771484375 346 L 374.3290710449219 346 ZM 408.91986083984375 321.0799865722656 C 410.5798645019531 321.0799865722656 412.1131896972656 321.3466796875 413.5198669433594 321.8800048828125 C 414.91986083984375 322.413330078125 416.1332092285156 323.2066650390625 417.1598815917969 324.260009765625 C 418.1865234375 325.3133239746094 418.9865417480469 326.6266784667969 419.55987548828125 328.20001220703125 C 420.1332092285156 329.7733459472656 420.41986083984375 331.6099853515625 420.41986083984375 333.7099914550781 C 420.41986083984375 335.7699890136719 420.119873046875 337.586669921875 419.5198669433594 339.1600036621094 C 418.9265441894531 340.7266540527344 418.10986328125 342.0433349609375 417.06988525390625 343.1099853515625 C 416.0298767089844 344.1766662597656 414.79986572265625 344.98333740234375 413.3798828125 345.5299987792969 C 411.9598693847656 346.07666015625 410.41986083984375 346.3500061035156 408.7598571777344 346.3500061035156 C 407.09320068359375 346.3500061035156 405.55987548828125 346.0833435058594 404.1598815917969 345.54998779296875 C 402.7532043457031 345.01666259765625 401.5365295410156 344.22332763671875 400.5098571777344 343.1700134277344 C 399.48321533203125 342.1166687011719 398.6831970214844 340.8033447265625 398.10986328125 339.2300109863281 C 397.5365295410156 337.65667724609375 397.2498779296875 335.8166809082031 397.2498779296875 333.7099914550781 C 397.2498779296875 331.65667724609375 397.54986572265625 329.84332275390625 398.1498718261719 328.2699890136719 C 398.7498779296875 326.6966552734375 399.5698547363281 325.3800048828125 400.60986328125 324.32000732421875 C 401.6498718261719 323.2533264160156 402.87652587890625 322.4466552734375 404.28985595703125 321.8999938964844 C 405.7098693847656 321.35333251953125 407.2532043457031 321.0799865722656 408.91986083984375 321.0799865722656 M 401.1498718261719 333.7099914550781 C 401.1498718261719 335.3766784667969 401.35321044921875 336.82000732421875 401.7598571777344 338.0400085449219 C 402.1598815917969 339.26666259765625 402.71319580078125 340.2833251953125 403.41986083984375 341.0899963378906 C 404.119873046875 341.8900146484375 404.9432067871094 342.4866638183594 405.8898620605469 342.8800048828125 C 406.84320068359375 343.26666259765625 407.85321044921875 343.4599914550781 408.91986083984375 343.4599914550781 C 409.9798583984375 343.4599914550781 410.97320556640625 343.26666259765625 411.8998718261719 342.8800048828125 C 412.81988525390625 342.4866638183594 413.62652587890625 341.8900146484375 414.31988525390625 341.0899963378906 C 415.00653076171875 340.2833251953125 415.5465393066406 339.26666259765625 415.93988037109375 338.0400085449219 C 416.3265380859375 336.82000732421875 416.5198669433594 335.3766784667969 416.5198669433594 333.7099914550781 C 416.5198669433594 331.9966735839844 416.31988525390625 330.5299987792969 415.91986083984375 329.30999755859375 C 415.5132141113281 328.0899963378906 414.9598693847656 327.0833435058594 414.2598571777344 326.2900085449219 C 413.55987548828125 325.4966735839844 412.73321533203125 324.9100036621094 411.7798767089844 324.5299987792969 C 410.83319091796875 324.1499938964844 409.8265380859375 323.9599914550781 408.7598571777344 323.9599914550781 C 407.6932067871094 323.9599914550781 406.6932067871094 324.15667724609375 405.7598571777344 324.54998779296875 C 404.8198547363281 324.9433288574219 404.0132141113281 325.5400085449219 403.3398742675781 326.3399963378906 C 402.6598815917969 327.14666748046875 402.12652587890625 328.163330078125 401.7398681640625 329.3900146484375 C 401.3465270996094 330.6099853515625 401.1498718261719 332.04998779296875 401.1498718261719 333.7099914550781 ZM 427.9280090332031 346 L 427.9280090332031 327.6700134277344 L 430.50799560546875 327.6700134277344 L 431.0880126953125 331.3399963378906 C 431.53466796875 330.1666564941406 432.2646789550781 329.2166748046875 433.27801513671875 328.489990234375 C 434.29132080078125 327.7633361816406 435.4613342285156 327.3999938964844 436.7879943847656 327.3999938964844 C 437.4613342285156 327.3999938964844 438.01800537109375 327.45001220703125 438.4580078125 327.54998779296875 C 438.9046630859375 327.65667724609375 439.3080139160156 327.78668212890625 439.6679992675781 327.94000244140625 L 439.00799560546875 330.95001220703125 C 438.6946716308594 330.7900085449219 438.3513488769531 330.6600036621094 437.9779968261719 330.55999755859375 C 437.5979919433594 330.4533386230469 437.14801025390625 330.3999938964844 436.62799072265625 330.3999938964844 C 435.8746643066406 330.3999938964844 435.1780090332031 330.5299987792969 434.5379943847656 330.7900085449219 C 433.9046630859375 331.04998779296875 433.3479919433594 331.44000244140625 432.8680114746094 331.9599914550781 C 432.38800048828125 332.4800109863281 432.0113220214844 333.1233215332031 431.7380065917969 333.8900146484375 C 431.46466064453125 334.65667724609375 431.3280029296875 335.5333251953125 431.3280029296875 336.5199890136719 L 431.3280029296875 346 L 427.9280090332031 346 ZM 445.19378662109375 333.75 C 445.19378662109375 332.7366638183594 445.373779296875 331.8333435058594 445.7337951660156 331.0400085449219 C 446.1004333496094 330.2466735839844 446.61712646484375 329.5799865722656 447.2837829589844 329.0400085449219 C 447.94378662109375 328.49334716796875 448.7304382324219 328.0833435058594 449.6437683105469 327.80999755859375 C 450.5504455566406 327.53668212890625 451.537109375 327.3999938964844 452.6037902832031 327.3999938964844 C 452.9904479980469 327.3999938964844 453.36712646484375 327.4266662597656 453.7337951660156 327.4800109863281 C 454.1004638671875 327.52667236328125 454.4637756347656 327.5899963378906 454.82379150390625 327.6700134277344 L 462.7437744140625 327.6700134277344 L 462.7437744140625 330.2099914550781 L 461.5337829589844 330.2099914550781 L 458.4137878417969 329.7799987792969 C 458.9071044921875 330.29998779296875 459.2904357910156 330.89666748046875 459.56378173828125 331.57000732421875 C 459.8371276855469 332.24334716796875 459.9737854003906 332.9566650390625 459.9737854003906 333.7099914550781 C 459.9737854003906 334.7300109863281 459.7904357910156 335.63665771484375 459.42376708984375 336.42999267578125 C 459.06378173828125 337.22332763671875 458.55712890625 337.8900146484375 457.9037780761719 338.42999267578125 C 457.2571105957031 338.9766540527344 456.47711181640625 339.38665771484375 455.56378173828125 339.6600036621094 C 454.6571044921875 339.9333190917969 453.6704406738281 340.07000732421875 452.6037902832031 340.07000732421875 C 451.797119140625 340.07000732421875 451.0937805175781 340.0199890136719 450.4937744140625 339.9200134277344 C 449.90045166015625 340.1266784667969 449.4837951660156 340.3933410644531 449.2437744140625 340.7200012207031 C 449.01043701171875 341.0400085449219 448.8937683105469 341.3833312988281 448.8937683105469 341.75 C 448.8937683105469 342.3500061035156 449.09710693359375 342.7533264160156 449.5037841796875 342.9599914550781 C 449.9037780761719 343.1666564941406 450.44378662109375 343.2699890136719 451.123779296875 343.2699890136719 L 455.95379638671875 343.2699890136719 C 457.9804382324219 343.2699890136719 459.5337829589844 343.7300109863281 460.61376953125 344.6499938964844 C 461.69378662109375 345.57666015625 462.2337951660156 346.8333435058594 462.2337951660156 348.4200134277344 C 462.2337951660156 349.4333190917969 462.0137939453125 350.34332275390625 461.57379150390625 351.1499938964844 C 461.1337890625 351.9566650390625 460.5037841796875 352.6433410644531 459.68377685546875 353.2099914550781 C 458.86376953125 353.7833251953125 457.86712646484375 354.2200012207031 456.69378662109375 354.5199890136719 C 455.527099609375 354.82000732421875 454.21710205078125 354.9700012207031 452.7637939453125 354.9700012207031 C 450.1104431152344 354.9700012207031 447.9971008300781 354.4966735839844 446.42376708984375 353.54998779296875 C 444.8504333496094 352.5966796875 444.06378173828125 351.1966552734375 444.06378173828125 349.3500061035156 C 444.06378173828125 348.3900146484375 444.36712646484375 347.586669921875 444.9737854003906 346.94000244140625 C 445.5871276855469 346.2866516113281 446.3871154785156 345.7900085449219 447.373779296875 345.45001220703125 C 446.8537902832031 345.0899963378906 446.4637756347656 344.7066650390625 446.20379638671875 344.29998779296875 C 445.94378662109375 343.8999938964844 445.81378173828125 343.36334228515625 445.81378173828125 342.69000244140625 C 445.81378173828125 341.8833312988281 446.05377197265625 341.1933288574219 446.5337829589844 340.6199951171875 C 447.02044677734375 340.0466613769531 447.6771240234375 339.5899963378906 448.5037841796875 339.25 C 447.4637756347656 338.7833251953125 446.6537780761719 338.10333251953125 446.07379150390625 337.2099914550781 C 445.48712158203125 336.30999755859375 445.19378662109375 335.15667724609375 445.19378662109375 333.75 M 449.36376953125 346 C 448.037109375 346.6000061035156 447.373779296875 347.5366516113281 447.373779296875 348.80999755859375 C 447.373779296875 351.0966796875 449.220458984375 352.239990234375 452.9137878417969 352.239990234375 C 454.0071105957031 352.239990234375 454.9304504394531 352.13665771484375 455.68377685546875 351.92999267578125 C 456.4371032714844 351.72332763671875 457.047119140625 351.45001220703125 457.5137939453125 351.1099853515625 C 457.9804382324219 350.7699890136719 458.3271179199219 350.3933410644531 458.55377197265625 349.9800109863281 C 458.7737731933594 349.55999755859375 458.8837890625 349.1300048828125 458.8837890625 348.69000244140625 C 458.8837890625 347.5966796875 458.5137939453125 346.8766784667969 457.7737731933594 346.5299987792969 C 457.0337829589844 346.1766662597656 456.1037902832031 346 454.9837951660156 346 L 449.36376953125 346 M 456.5037841796875 333.8299865722656 C 456.5037841796875 332.4566650390625 456.1471252441406 331.4433288574219 455.43377685546875 330.7900085449219 C 454.7137756347656 330.1433410644531 453.77044677734375 329.82000732421875 452.6037902832031 329.82000732421875 C 451.4304504394531 329.82000732421875 450.48712158203125 330.1433410644531 449.7737731933594 330.7900085449219 C 449.0604553222656 331.4433288574219 448.70379638671875 332.40667724609375 448.70379638671875 333.67999267578125 C 448.70379638671875 335.02667236328125 449.0604553222656 336.0199890136719 449.7737731933594 336.6600036621094 C 450.48712158203125 337.29998779296875 451.4304504394531 337.6199951171875 452.6037902832031 337.6199951171875 C 453.77044677734375 337.6199951171875 454.7137756347656 337.3066711425781 455.43377685546875 336.67999267578125 C 456.1471252441406 336.0533447265625 456.5037841796875 335.10333251953125 456.5037841796875 333.8299865722656 ZM 469.72637939453125 329.30999755859375 C 470.34637451171875 328.9966735839844 470.9297180175781 328.7166748046875 471.47637939453125 328.4700012207031 C 472.0230407714844 328.22332763671875 472.5697021484375 328.0199890136719 473.1163635253906 327.8599853515625 C 473.66302490234375 327.7066650390625 474.2230529785156 327.5899963378906 474.79638671875 327.510009765625 C 475.3697204589844 327.4366760253906 475.9930419921875 327.3999938964844 476.6663818359375 327.3999938964844 C 477.6797180175781 327.3999938964844 478.6097106933594 327.510009765625 479.45635986328125 327.7300109863281 C 480.30303955078125 327.95001220703125 481.0296936035156 328.32000732421875 481.6363830566406 328.8399963378906 C 482.24969482421875 329.3599853515625 482.7230529785156 330.0433349609375 483.0563659667969 330.8900146484375 C 483.3963623046875 331.7300109863281 483.5663757324219 332.7900085449219 483.5663757324219 334.07000732421875 L 483.5663757324219 346 L 480.72637939453125 346 L 480.29638671875 343.9700012207031 L 480.21636962890625 343.9700012207031 C 479.4096984863281 344.8299865722656 478.5263671875 345.44000244140625 477.5663757324219 345.79998779296875 C 476.5997009277344 346.1666564941406 475.5330505371094 346.3500061035156 474.3663635253906 346.3500061035156 C 473.4797058105469 346.3500061035156 472.6663818359375 346.2266540527344 471.9263610839844 345.9800109863281 C 471.1863708496094 345.73333740234375 470.54302978515625 345.3833312988281 469.9963684082031 344.92999267578125 C 469.44970703125 344.4766540527344 469.0263671875 343.92333984375 468.72637939453125 343.2699890136719 C 468.4263610839844 342.6166687011719 468.2763671875 341.8900146484375 468.2763671875 341.0899963378906 C 468.2763671875 339.163330078125 469.0397033691406 337.70001220703125 470.5663757324219 336.70001220703125 C 472.08636474609375 335.70001220703125 474.0930480957031 335.20001220703125 476.58636474609375 335.20001220703125 L 480.09637451171875 335.20001220703125 L 480.09637451171875 333.6400146484375 C 480.09637451171875 332.3133239746094 479.75970458984375 331.4100036621094 479.08636474609375 330.92999267578125 C 478.4063720703125 330.45001220703125 477.4963684082031 330.2099914550781 476.35638427734375 330.2099914550781 C 475.6763610839844 330.2099914550781 474.9030456542969 330.32000732421875 474.036376953125 330.5400085449219 C 473.16302490234375 330.760009765625 472.1663818359375 331.17999267578125 471.04638671875 331.79998779296875 L 469.72637939453125 329.30999755859375 M 480.1363830566406 337.5400085449219 L 477.2463684082031 337.6199951171875 C 475.2997131347656 337.6666564941406 473.9163818359375 338.010009765625 473.09637451171875 338.6499938964844 C 472.2763671875 339.2833251953125 471.8663635253906 340.0566711425781 471.8663635253906 340.9700012207031 C 471.8663635253906 341.51666259765625 471.95635986328125 341.9766540527344 472.1363830566406 342.3500061035156 C 472.3230285644531 342.7300109863281 472.5663757324219 343.0233459472656 472.8663635253906 343.2300109863281 C 473.1596984863281 343.4366760253906 473.50970458984375 343.586669921875 473.9163818359375 343.67999267578125 C 474.3163757324219 343.7733459472656 474.7397155761719 343.82000732421875 475.1863708496094 343.82000732421875 C 476.0397033691406 343.82000732421875 476.9096984863281 343.6166687011719 477.79638671875 343.2099914550781 C 478.68304443359375 342.80999755859375 479.4630432128906 342.1666564941406 480.1363830566406 341.2799987792969 L 480.1363830566406 337.5400085449219 ZM 494.8370056152344 346 L 491.4070129394531 346 L 491.4070129394531 327.6700134277344 L 494.0970153808594 327.6700134277344 L 494.6070251464844 330.2099914550781 C 495.513671875 329.2966613769531 496.4703369140625 328.6000061035156 497.4770202636719 328.1199951171875 C 498.4770202636719 327.6400146484375 499.62701416015625 327.3999938964844 500.9270324707031 327.3999938964844 C 502.80035400390625 327.3999938964844 504.26702880859375 327.9266662597656 505.3270263671875 328.9800109863281 C 506.3936767578125 330.0333251953125 506.9270324707031 331.49334716796875 506.9270324707031 333.3599853515625 L 506.9270324707031 346 L 503.49700927734375 346 L 503.49700927734375 333.8699951171875 C 503.49700927734375 332.75 503.20367431640625 331.8599853515625 502.61700439453125 331.20001220703125 C 502.0370178222656 330.5400085449219 501.14703369140625 330.2099914550781 499.947021484375 330.2099914550781 C 498.12701416015625 330.2099914550781 496.4236755371094 331.02667236328125 494.8370056152344 332.6600036621094 L 494.8370056152344 346 ZM 516.3951416015625 346 L 516.3951416015625 327.6700134277344 L 519.8251342773438 327.6700134277344 L 519.8251342773438 346 L 516.3951416015625 346 M 518.1051025390625 322.95001220703125 C 517.5117797851562 322.95001220703125 516.9984741210938 322.75 516.5651245117188 322.3500061035156 C 516.1384887695312 321.9433288574219 515.9251098632812 321.44000244140625 515.9251098632812 320.8399963378906 C 515.9251098632812 320.2466735839844 516.1384887695312 319.739990234375 516.5651245117188 319.32000732421875 C 516.9984741210938 318.90667724609375 517.5117797851562 318.70001220703125 518.1051025390625 318.70001220703125 C 518.678466796875 318.70001220703125 519.1851196289062 318.90667724609375 519.6251220703125 319.32000732421875 C 520.07177734375 319.739990234375 520.2951049804688 320.2466735839844 520.2951049804688 320.8399963378906 C 520.2951049804688 321.44000244140625 520.07177734375 321.9433288574219 519.6251220703125 322.3500061035156 C 519.1851196289062 322.75 518.678466796875 322.95001220703125 518.1051025390625 322.95001220703125 ZM 541.298583984375 329.6600036621094 L 531.5885620117188 343.42999267578125 L 541.4885864257812 343.42999267578125 L 541.4885864257812 346 L 527.3685302734375 346 L 527.3685302734375 343.8900146484375 L 537.0885620117188 330.239990234375 L 528.03857421875 330.239990234375 L 528.03857421875 327.6700134277344 L 541.298583984375 327.6700134277344 L 541.298583984375 329.6600036621094 ZM 563.2308959960938 337.2200012207031 L 550.0908813476562 337.2200012207031 L 550.0908813476562 337.3800048828125 C 550.0908813476562 339.40667724609375 550.6442260742188 340.9666748046875 551.7509155273438 342.05999755859375 C 552.8508911132812 343.1533203125 554.3508911132812 343.70001220703125 556.2509155273438 343.70001220703125 C 557.237548828125 343.70001220703125 558.1142578125 343.6199951171875 558.8809204101562 343.4599914550781 C 559.6475830078125 343.3066711425781 560.487548828125 343.04998779296875 561.40087890625 342.69000244140625 L 562.1008911132812 345.2200012207031 C 561.3475341796875 345.55999755859375 560.4575805664062 345.8333435058594 559.430908203125 346.0400085449219 C 558.4042358398438 346.2466735839844 557.30419921875 346.3500061035156 556.1309204101562 346.3500061035156 C 554.80419921875 346.3500061035156 553.564208984375 346.1666564941406 552.410888671875 345.79998779296875 C 551.2509155273438 345.44000244140625 550.2308959960938 344.8766784667969 549.3508911132812 344.1099853515625 C 548.4642333984375 343.34332275390625 547.767578125 342.3599853515625 547.2609252929688 341.1600036621094 C 546.7542114257812 339.9666748046875 546.5009155273438 338.53668212890625 546.5009155273438 336.8699951171875 C 546.5009155273438 335.4433288574219 546.7142333984375 334.1433410644531 547.140869140625 332.9700012207031 C 547.57421875 331.8033447265625 548.180908203125 330.80999755859375 548.9608764648438 329.989990234375 C 549.7409057617188 329.1700134277344 550.6842041015625 328.5333251953125 551.7908935546875 328.0799865722656 C 552.890869140625 327.6266784667969 554.1309204101562 327.3999938964844 555.5109252929688 327.3999938964844 C 556.6842041015625 327.3999938964844 557.7442016601562 327.59332275390625 558.69091796875 327.9800109863281 C 559.6375732421875 328.3733215332031 560.4508666992188 328.9200134277344 561.1309204101562 329.6199951171875 C 561.80419921875 330.32000732421875 562.32421875 331.163330078125 562.69091796875 332.1499938964844 C 563.0509033203125 333.1433410644531 563.2308959960938 334.2366638183594 563.2308959960938 335.42999267578125 L 563.2308959960938 337.2200012207031 M 559.680908203125 334.7699890136719 C 559.680908203125 334.0899963378906 559.5975341796875 333.4599914550781 559.430908203125 332.8800048828125 C 559.2642211914062 332.2933349609375 559.0042114257812 331.7799987792969 558.65087890625 331.3399963378906 C 558.2975463867188 330.8933410644531 557.8475341796875 330.5400085449219 557.3009033203125 330.2799987792969 C 556.7609252929688 330.0199890136719 556.1008911132812 329.8900146484375 555.3209228515625 329.8900146484375 C 553.8875732421875 329.8900146484375 552.7208862304688 330.3466796875 551.8209228515625 331.260009765625 C 550.9275512695312 332.1666564941406 550.3775634765625 333.36334228515625 550.1708984375 334.8500061035156 L 559.680908203125 334.7699890136719 ZM 570.0302734375 346 L 570.0302734375 327.6700134277344 L 572.6102905273438 327.6700134277344 L 573.1902465820312 331.3399963378906 C 573.636962890625 330.1666564941406 574.366943359375 329.2166748046875 575.3802490234375 328.489990234375 C 576.3936157226562 327.7633361816406 577.5635986328125 327.3999938964844 578.8902587890625 327.3999938964844 C 579.5635986328125 327.3999938964844 580.1202392578125 327.45001220703125 580.5602416992188 327.54998779296875 C 581.0069580078125 327.65667724609375 581.4102783203125 327.78668212890625 581.770263671875 327.94000244140625 L 581.1102905273438 330.95001220703125 C 580.7969360351562 330.7900085449219 580.45361328125 330.6600036621094 580.0802612304688 330.55999755859375 C 579.7002563476562 330.4533386230469 579.250244140625 330.3999938964844 578.7302856445312 330.3999938964844 C 577.9769287109375 330.3999938964844 577.2802734375 330.5299987792969 576.6402587890625 330.7900085449219 C 576.0069580078125 331.04998779296875 575.4502563476562 331.44000244140625 574.9702758789062 331.9599914550781 C 574.4902954101562 332.4800109863281 574.1135864257812 333.1233215332031 573.8402709960938 333.8900146484375 C 573.5669555664062 334.65667724609375 573.4302368164062 335.5333251953125 573.4302368164062 336.5199890136719 L 573.4302368164062 346 L 570.0302734375 346 Z" transform="matrix(0.9556162357330322, 0, 0, 0.9556162357330322, -59.8453483581543, 109.94721221923828)" style="fill: rgb(9, 0, 10); white-space: pre; color: rgb(9, 0, 10); stroke: rgb(250, 255, 250); stroke-opacity: 0.52; stroke-width: 9; paint-order: stroke;"/><g transform="matrix(2.938265323638916, 0, 0, 2.938265323638916, -129.36039394147332, -235.71486143549896)"><path d="M 208.310005 707.869995 A 59.599998 59.599998 0 0 1 148.710007 767.469994 A 59.599998 59.599998 0 0 1 89.110008 707.869995 A 59.599998 59.599998 0 0 1 148.710007 648.269997 A 59.599998 59.599998 0 0 1 208.310005 707.869995 Z" class="cls-15" style="fill: url('#radial-gradient-6');" transform="matrix(0.7213644981384277, -0.6925557851791382, 0.6925557851791382, 0.7213644981384277, -468.4033203125, -253.3203125)"/><path class="cls-16" d="M148.71,639.15a68.72,68.72,0,1,0,68.72,68.72A68.72,68.72,0,0,0,148.71,639.15Zm0,130.82a62.1,62.1,0,1,1,62.1-62.1A62.1,62.1,0,0,1,148.71,770Z" style="fill: url('#gradient-2'); stroke-opacity: 1; fill-opacity: 0.79;" transform="matrix(0.7213644981384277, -0.6925557851791382, 0.6925557851791382, 0.7213644981384277, -468.4033203125, -253.3203125)"/><path d="M 201.720005 707.869995 A 53.009998 53.009998 0 0 1 148.710007 760.879993 A 53.009998 53.009998 0 0 1 95.700008 707.869995 A 53.009998 53.009998 0 0 1 148.710007 654.859997 A 53.009998 53.009998 0 0 1 201.720005 707.869995 Z" class="cls-17" style="fill: url('#linear-gradient-7');" transform="matrix(0.7213644981384277, -0.6925557851791382, 0.6925557851791382, 0.7213644981384277, -468.4033203125, -253.3203125)"/><path d="M 197.260006 707.869995 A 48.549999 48.549999 0 0 1 148.710007 756.419994 A 48.549999 48.549999 0 0 1 100.160007 707.869995 A 48.549999 48.549999 0 0 1 148.710007 659.319996 A 48.549999 48.549999 0 0 1 197.260006 707.869995 Z" class="cls-18" transform="matrix(0.13324682414531708, -0.9910828471183777, 0.9910828471183777, 0.13324682414531708, -592.2590942382812, 207.3717803955078)" style="fill: url('#linear-gradient-8');"/><path d="M 196.160007 707.869995 A 47.450001 47.450001 0 0 1 148.710007 755.319996 A 47.450001 47.450001 0 0 1 101.260006 707.869995 A 47.450001 47.450001 0 0 1 148.710007 660.419994 A 47.450001 47.450001 0 0 1 196.160007 707.869995 Z" class="cls-19" transform="matrix(0.13324682414531708, -0.9910828471183777, 0.9910828471183777, 0.13324682414531708, -592.2590942382812, 207.3717803955078)" style="fill: url('#linear-gradient-9');"/><path d="M 179.210002 706.48999 H 187.670002 A 1.38 1.38 0 0 1 189.050002 707.86999 V 707.86999 A 1.38 1.38 0 0 1 187.670002 709.24999 H 179.210002 A 1.38 1.38 0 0 1 177.830002 707.86999 V 707.86999 A 1.38 1.38 0 0 1 179.210002 706.48999 Z" class="cls-7" style="fill: url('#gradient-0');" transform="matrix(2.894899368286133, -2.7792863845825195, 2.7792863845825195, 2.894899368286133, -2352.618408203125, -1399.5504150390625)"/><path class="cls-20" d="M148.71,639.15a68.72,68.72,0,0,0-48.59,117.31l4.68-4.68a62.1,62.1,0,1,1,106-43.91h6.62A68.72,68.72,0,0,0,148.71,639.15Z" style="fill: url('#gradient-1'); fill-opacity: 1;" transform="matrix(0.7213644981384277, -0.6925557851791382, 0.6925557851791382, 0.7213644981384277, -468.4033203125, -253.3203125)"/></g></svg>